<?xml version="1.0" standalone="no"?>
<!DOCTYPE svg PUBLIC "-//W3C//DTD SVG 20010904//EN"
 "http://www.w3.org/TR/2001/REC-SVG-20010904/DTD/svg10.dtd">
<svg version="1.0" xmlns="http://www.w3.org/2000/svg"
 width="512.000000pt" height="512.000000pt" viewBox="0 0 512.000000 512.000000"
 preserveAspectRatio="xMidYMid meet">
<metadata>
Created by potrace 1.11, written by Peter Selinger 2001-2013
</metadata>
<g transform="translate(0.000000,512.000000) scale(0.100000,-0.100000)"
fill="#000000" stroke="none">
<path d="M1125 5108 c-34 -12 -92 -53 -117 -83 -49 -58 -48 -25 -48 -1287 l0
-1178 -285 0 c-299 0 -333 -4 -349 -45 -8 -21 -8 -193 0 -223 15 -53 6 -52
778 -52 533 0 722 -3 741 -12 21 -9 49 -57 128 -215 56 -112 104 -203 107
-203 3 0 134 258 291 573 309 616 304 609 371 591 31 -9 41 -26 213 -371 l180
-361 381 -4 381 -3 37 -29 c88 -66 88 -186 0 -252 l-37 -29 -478 -3 -478 -3
-108 216 c-59 118 -110 215 -113 215 -3 0 -131 -252 -285 -561 -154 -308 -290
-571 -301 -584 -27 -29 -87 -28 -111 2 -9 11 -93 174 -188 364 l-172 344 -352
3 -351 2 0 -853 c0 -947 -2 -920 65 -988 19 -20 52 -45 73 -55 36 -18 103 -19
1767 -22 1921 -3 1787 -7 1858 64 20 20 44 52 54 73 17 34 18 115 21 1709 l2
1672 -694 0 c-796 0 -764 -3 -840 81 -27 30 -48 65 -55 93 -8 31 -11 256 -11
735 l0 691 -1022 -1 c-686 0 -1033 -4 -1053 -11z"/>
<path d="M3520 4481 l0 -641 640 0 640 0 0 43 c0 24 -7 67 -15 95 -15 49 -45
82 -538 575 -287 288 -538 531 -557 541 -19 9 -65 20 -102 23 l-68 6 0 -642z"/>
</g>
</svg>
